<svg width="20" height="20" viewBox="0 0 20 20" fill="none" xmlns="http://www.w3.org/2000/svg">
<path fill-rule="evenodd" clip-rule="evenodd" d="M9.41079 3.57745C9.73622 3.25201 10.2639 3.25201 10.5893 3.57745L16.4226 9.41079C16.7481 9.73622 16.7481 10.2639 16.4226 10.5893C16.0972 10.9147 15.5696 10.9147 15.2441 10.5893L10 5.34522L4.75596 10.5893C4.43053 10.9147 3.90289 10.9147 3.57745 10.5893C3.25201 10.2639 3.25201 9.73622 3.57745 9.41079L9.41079 3.57745Z" fill="#3C7BFE"/>
<path fill-rule="evenodd" clip-rule="evenodd" d="M9.99996 3.33337C10.4602 3.33337 10.8333 3.70647 10.8333 4.16671V15.8334C10.8333 16.2936 10.4602 16.6667 9.99996 16.6667C9.53972 16.6667 9.16663 16.2936 9.16663 15.8334V4.16671C9.16663 3.70647 9.53972 3.33337 9.99996 3.33337Z" fill="#3C7BFE"/>
</svg>
